<svg xmlns="http://www.w3.org/2000/svg" width="46" height="46" viewBox="0 0 46 46"><defs><style>.a{fill:#4285f4;}.b{fill:#fdfdff;opacity:0.249;}.c{fill:#6a61b4;}.d{fill:#51489a;}.e{fill:#c1bde0;}.f{fill:#9bcf1b;}.g{fill:#f76937;}.h{fill:#ffb52d;}.i{fill:#ffc14f;}.j{fill:#ea552d;}.k{fill:#ff9100;}.l{fill:#ffcd71;}.m{fill:#e7e7e7;}.n{fill:#cecece;}.o{fill:#f95f00;}</style></defs><path class="a" d="M46,23A23.007,23.007,0,0,1,30.414,44.773a1.1,1.1,0,0,1-1.452-1.049A12.554,12.554,0,0,0,16.408,31.172H3.2A2.366,2.366,0,0,1,.927,29.48,23,23,0,1,1,46,23Z" transform="translate(0 0)"/><path class="b" d="M81.529,88.754A18.732,18.732,0,1,1,62.8,70.024,18.731,18.731,0,0,1,81.529,88.754Z" transform="translate(-40.105 -63.733)"/><path class="c" d="M204.123,0h22.563a.74.74,0,0,1,.74.74V32.5a.74.74,0,0,1-.74.74H204.123a.74.74,0,0,1-.74-.74V.74a.74.74,0,0,1,.74-.74Z" transform="translate(-185.11)"/><path class="d" d="M167.4,0V33.238H163V.9a.9.9,0,0,1,.9-.9Z" transform="translate(-148.355 0)"/><path class="e" d="M317.188,72.238a.449.449,0,0,1-.449.449h-6.289a.449.449,0,1,1,0-.9h6.289A.449.449,0,0,1,317.188,72.238Zm-6.738-1.347h6.289a.449.449,0,1,0,0-.9h-6.289a.449.449,0,1,0,0,.9Zm6.289,2.695h-2.7a.449.449,0,1,0,0,.9h2.7a.449.449,0,1,0,0-.9Z" transform="translate(-282.148 -63.704)"/><path class="f" d="M232.034,379.736H221.073a.9.9,0,0,1-.9-.9v-4.164a.9.9,0,0,1,.9-.9h10.961a.9.9,0,0,1,.9.9v4.164A.9.9,0,0,1,232.034,379.736Z" transform="translate(-200.394 -340.194)"/><path class="g" d="M242.034,319.744H231.073a.9.9,0,0,1-.9-.9v-4.164a.9.9,0,0,1,.9-.9h10.961a.9.9,0,0,1,.9.9v4.164A.9.9,0,0,1,242.034,319.744Z" transform="translate(-209.495 -285.592)"/><path class="h" d="M395.047,131.415a5.389,5.389,0,0,1,.569,2.41v24.049a.847.847,0,0,1-.847.847h-2.989a.847.847,0,0,1-.847-.847V133.825a5.39,5.39,0,0,1,.569-2.41l.566-1.132a1.349,1.349,0,0,1,2.414,0Z" transform="translate(-355.809 -117.899)"/><path class="i" d="M412.745,130.283l.566,1.132a5.389,5.389,0,0,1,.569,2.41v16.949a1.441,1.441,0,0,1-2.881,0V129.648A1.349,1.349,0,0,1,412.745,130.283Z" transform="translate(-374.073 -117.9)"/><path class="j" d="M403.315,120.825l.7-1.4a.59.59,0,0,1,1.056,0l.7,1.4Z" transform="translate(-367.08 -108.396)"/><path class="g" d="M390.933,446v-1.064h4.684V446a1.07,1.07,0,0,1-.9,1.182h-2.887A1.07,1.07,0,0,1,390.933,446Z" transform="translate(-355.81 -404.966)"/><path class="j" d="M393.634,447.188h-1.8a1.07,1.07,0,0,1-.9-1.182v-1.064h1.8v1.064A1.07,1.07,0,0,0,393.634,447.188Z" transform="translate(-355.81 -404.967)"/><path class="h" d="M82.653,297.559l-.015,17.809a23.034,23.034,0,0,1-25.3-7.273V297.309a6.312,6.312,0,0,0,1.688.231Z" transform="translate(-52.189 -270.598)"/><path class="k" d="M10,253.967h5.211v15.789A22.965,22.965,0,0,1,10,260.533ZM25.3,259.9a4.4,4.4,0,1,0,4.4,4.406A4.4,4.4,0,0,0,25.3,259.9Z" transform="translate(-9.102 -231.15)"/><path class="g" d="M134.434,349.1h-8.986a.448.448,0,0,1-.448-.448v0a.448.448,0,0,1,.448-.448h8.986a.448.448,0,0,1,.448.448v0a.448.448,0,0,1-.448.448Zm-.54,1.348v0a.448.448,0,0,0-.448-.448h-7.01a.448.448,0,0,0-.448.448v0a.448.448,0,0,0,.448.448h7.01A.448.448,0,0,0,133.895,350.448Zm-3.926-11.5a2.695,2.695,0,1,0,2.693,2.7A2.7,2.7,0,0,0,129.969,338.948Z" transform="translate(-113.77 -308.496)"/><path class="h" d="M152,17.043a.449.449,0,0,1,.449-.449h2.7a.449.449,0,1,1,0,.9h-2.7A.449.449,0,0,1,152,17.043Zm3.145,1.347h-2.7a.449.449,0,1,0,0,.9h2.7a.449.449,0,1,0,0-.9Zm0,1.8h-2.7a.449.449,0,1,0,0,.9h2.7a.449.449,0,1,0,0-.9Zm0,1.8h-2.7a.449.449,0,1,0,0,.9h2.7a.449.449,0,1,0,0-.9Zm0,4.492h-2.7a.449.449,0,1,0,0,.9h2.7a.449.449,0,1,0,0-.9Zm0,1.8h-2.7a.449.449,0,1,0,0,.9h2.7a.449.449,0,1,0,0-.9Zm0,1.8h-2.7a.449.449,0,1,0,0,.9h2.7a.449.449,0,1,0,0-.9Zm0,1.8h-2.7a.449.449,0,1,0,0,.9h2.7a.449.449,0,1,0,0-.9Z" transform="translate(-138.344 -15.103)"/><path class="l" d="M173.8,28.721a.449.449,0,0,1-.449.449h-.9a.449.449,0,1,1,0-.9h.9A.449.449,0,0,1,173.8,28.721Zm-.449-2.246h-.9a.449.449,0,1,0,0,.9h.9a.449.449,0,1,0,0-.9Zm0-6.288h-.9a.449.449,0,1,0,0,.9h.9a.449.449,0,1,0,0-.9Zm0,1.8h-.9a.449.449,0,1,0,0,.9h.9a.449.449,0,1,0,0-.9Zm0,9.881h-.9a.449.449,0,1,0,0,.9h.9a.449.449,0,1,0,0-.9Zm-.9-14.373h.9a.449.449,0,1,0,0-.9h-.9a.449.449,0,1,0,0,.9Zm.9.9h-.9a.449.449,0,1,0,0,.9h.9a.449.449,0,1,0,0-.9Zm0,11.678h-.9a.449.449,0,1,0,0,.9h.9a.449.449,0,1,0,0-.9Z" transform="translate(-156.547 -15.103)"/><path class="m" d="M30.277,223.158H3.594a3.593,3.593,0,1,1,0-7.187H30.277a3.577,3.577,0,0,0-.719,2.156V221A3.577,3.577,0,0,0,30.277,223.158Z" transform="translate(0 -196.567)"/><path class="n" d="M17.684,220.373a.449.449,0,0,1-.449.449h-11A3.6,3.6,0,0,0,9.6,223.158h-3.5a3.593,3.593,0,1,1,0-7.187H9.6A3.6,3.6,0,0,0,6.3,218.127H27.117a.449.449,0,1,1,0,.9H6.044a3.626,3.626,0,0,0-.04.539q0,.182.018.359H17.234A.449.449,0,0,1,17.684,220.373Zm11.23-.449H20.828a.449.449,0,1,0,0,.9h8.086a.449.449,0,1,0,0-.9Z" transform="translate(-2.275 -196.567)"/><path class="o" d="M31.176,218.608a.449.449,0,0,1-.449.449H4.043a4.042,4.042,0,1,1,0-8.085H30.726a.449.449,0,1,1,0,.9H4.043a3.144,3.144,0,1,0,0,6.288H30.726A.449.449,0,0,1,31.176,218.608Z" transform="translate(0 -192.017)"/></svg>