<svg xmlns="http://www.w3.org/2000/svg" width="18.233" height="17.268" viewBox="0 0 18.233 17.268"><defs><style>.a{fill:#eff5fe;}.b{fill:#a4afc1;}.c{fill:#91bbff;}.d{fill:#f3f3f1;}.e{fill:#4385f4;}.f{fill:#d5dbe1;}.g{fill:#db4437;}.h{fill:#4285f4;}</style></defs><g transform="translate(-0.436 -1.366)"><path class="a" d="M4.421,3.545C3.484,7.011,1.045,8.905.594,10.576s-.44,5.437,7.243,7.514,10.086-2.336,10.582-4.174c2.326-8.6-12.339-16.51-14-10.371Z" transform="translate(0 0)"/><g transform="translate(13.826 14.488)"><path class="b" d="M0,0H.519V1.038H0Z" transform="translate(2.202 2.477) rotate(-45)"/><path class="b" d="M0,0H1.038V.519H0Z" transform="translate(0 2.844) rotate(-45)"/><path class="b" d="M0,0H1.038V.519H0Z" transform="translate(2.11 0.734) rotate(-45)"/></g><path class="c" d="M18.429,9.788v2.076H6.75V9.788A1.041,1.041,0,0,1,7.788,8.75h9.6A1.041,1.041,0,0,1,18.429,9.788Z" transform="translate(-3.037 -3.551)"/><path class="d" d="M18.429,14.75v6.488a1.041,1.041,0,0,1-1.038,1.038h-9.6A1.041,1.041,0,0,1,6.75,21.238V14.75Z" transform="translate(-3.037 -6.437)"/><path class="e" d="M8.956,8.75H7.788A1.041,1.041,0,0,0,6.75,9.788v2.076H7.918V9.788A1.041,1.041,0,0,1,8.956,8.75Z" transform="translate(-3.037 -3.551)"/><path class="f" d="M7.918,21.238V14.75H6.75v6.488a1.041,1.041,0,0,0,1.038,1.038H8.956A1.041,1.041,0,0,1,7.918,21.238Z" transform="translate(-3.037 -6.437)"/><path class="b" d="M30.645,6.057a.779.779,0,1,1,.779-.779A.78.78,0,0,1,30.645,6.057Zm0-1.038a.26.26,0,1,0,.26.26A.26.26,0,0,0,30.645,5.019Z" transform="translate(-14.154 -1.507)"/><path class="g" d="M15.386,22.368h-.03a.39.39,0,0,1-.284-.158l-1.427-1.946.628-.46,1.159,1.581L18.1,18.719l.551.551-2.985,2.985A.392.392,0,0,1,15.386,22.368Z" transform="translate(-6.353 -8.346)"/><path class="h" d="M17.03,19.419h-9.6A1.429,1.429,0,0,1,6,17.992V9.427A1.429,1.429,0,0,1,7.427,8h9.6a1.429,1.429,0,0,1,1.427,1.427v8.564A1.429,1.429,0,0,1,17.03,19.419ZM7.427,8.779a.65.65,0,0,0-.649.649v8.564a.65.65,0,0,0,.649.649h9.6a.65.65,0,0,0,.649-.649V9.427a.65.65,0,0,0-.649-.649Z" transform="translate(-2.676 -3.191)"/><path class="h" d="M6.75,14H18.429v.779H6.75Z" transform="translate(-3.037 -6.076)"/><path class="h" d="M11,6.75h.779V9.086H11Z" transform="translate(-5.081 -2.589)"/><path class="h" d="M23.5,6.75h.779V9.086H23.5Z" transform="translate(-11.093 -2.589)"/></g></svg>