<svg xmlns="http://www.w3.org/2000/svg" width="28.345" height="28.113" viewBox="0 0 28.345 28.113"><defs><style>.a{fill:rgba(60,64,67,0.47);}</style></defs><g transform="translate(-8.907 -21.333)"><path class="a" d="M17.587,39.255a.334.334,0,0,1,.042-.169L18.894,36.8H29.366a2.82,2.82,0,0,0,2.46-1.448l5.426-9.854-2.46-1.349h-.007l-1.553,2.811-3.873,7.028H19.5l-.183-.38L16.16,26.956l-1.335-2.811L13.5,21.333H8.907v2.811h2.811l5.06,10.662-1.9,3.444a2.858,2.858,0,0,0-.344,1.356,2.811,2.811,0,0,0,2.811,2.811H34.209V39.607H17.938A.348.348,0,0,1,17.587,39.255Z"/><path class="a" d="M97.251,362.667a2.811,2.811,0,1,0,2.811,2.811A2.8,2.8,0,0,0,97.251,362.667Z" transform="translate(-79.91 -318.843)"/><path class="a" d="M310.584,362.667a2.811,2.811,0,1,0,2.811,2.811A2.8,2.8,0,0,0,310.584,362.667Z" transform="translate(-279.187 -318.843)"/></g></svg>